<svg xmlns="http://www.w3.org/2000/svg" viewBox="0 0 256.0 96.0"><path d="M 0.00 78.00 L 2.46 77.78 L 4.92 77.13 L 7.38 76.05 L 9.85 74.56 L 12.31 72.69 L 14.77 70.46 L 17.23 67.89 L 19.69 65.04 L 22.15 61.94 L 24.62 58.64 L 27.08 55.18 L 29.54 51.62 L 32.00 48.00 L 34.46 44.38 L 36.92 40.82 L 39.38 37.36 L 41.85 34.06 L 44.31 30.96 L 46.77 28.11 L 49.23 25.54 L 51.69 23.31 L 54.15 21.44 L 56.62 19.95 L 59.08 18.87 L 61.54 18.22 L 64.00 18.00 L 66.46 18.22 L 68.92 18.87 L 71.38 19.95 L 73.85 21.44 L 76.31 23.31 L 78.77 25.54 L 81.23 28.11 L 83.69 30.96 L 86.15 34.06 L 88.62 37.36 L 91.08 40.82 L 93.54 44.38 L 96.00 48.00 L 98.46 51.62 L 100.92 55.18 L 103.38 58.64 L 105.85 61.94 L 108.31 65.04 L 110.77 67.89 L 113.23 70.46 L 115.69 72.69 L 118.15 74.56 L 120.62 76.05 L 123.08 77.13 L 125.54 77.78 L 128.00 78.00 L 130.46 77.78 L 132.92 77.13 L 135.38 76.05 L 137.85 74.56 L 140.31 72.69 L 142.77 70.46 L 145.23 67.89 L 147.69 65.04 L 150.15 61.94 L 152.62 58.64 L 155.08 55.18 L 157.54 51.62 L 160.00 48.00 L 162.46 44.38 L 164.92 40.82 L 167.38 37.36 L 169.85 34.06 L 172.31 30.96 L 174.77 28.11 L 177.23 25.54 L 179.69 23.31 L 182.15 21.44 L 184.62 19.95 L 187.08 18.87 L 189.54 18.22 L 192.00 18.00 L 194.46 18.22 L 196.92 18.87 L 199.38 19.95 L 201.85 21.44 L 204.31 23.31 L 206.77 25.54 L 209.23 28.11 L 211.69 30.96 L 214.15 34.06 L 216.62 37.36 L 219.08 40.82 L 221.54 44.38 L 224.00 48.00 L 226.46 51.62 L 228.92 55.18 L 231.38 58.64 L 233.85 61.94 L 236.31 65.04 L 238.77 67.89 L 241.23 70.46 L 243.69 72.69 L 246.15 74.56 L 248.62 76.05 L 251.08 77.13 L 253.54 77.78 L 256.00 78.00" stroke="#EC7A2D" fill="none" stroke-width="18" stroke-linecap="round" stroke-linejoin="round"/><path d="M 0.00 18.00 L 2.46 18.22 L 4.92 18.87 L 7.38 19.95 L 9.85 21.44 L 12.31 23.31 L 14.77 25.54 L 17.23 28.11 L 19.69 30.96 L 22.15 34.06 L 24.62 37.36 L 27.08 40.82 L 29.54 44.38 L 32.00 48.00 L 34.46 51.62 L 36.92 55.18 L 39.38 58.64 L 41.85 61.94 L 44.31 65.04 L 46.77 67.89 L 49.23 70.46 L 51.69 72.69 L 54.15 74.56 L 56.62 76.05 L 59.08 77.13 L 61.54 77.78 L 64.00 78.00 L 66.46 77.78 L 68.92 77.13 L 71.38 76.05 L 73.85 74.56 L 76.31 72.69 L 78.77 70.46 L 81.23 67.89 L 83.69 65.04 L 86.15 61.94 L 88.62 58.64 L 91.08 55.18 L 93.54 51.62 L 96.00 48.00 L 98.46 44.38 L 100.92 40.82 L 103.38 37.36 L 105.85 34.06 L 108.31 30.96 L 110.77 28.11 L 113.23 25.54 L 115.69 23.31 L 118.15 21.44 L 120.62 19.95 L 123.08 18.87 L 125.54 18.22 L 128.00 18.00 L 130.46 18.22 L 132.92 18.87 L 135.38 19.95 L 137.85 21.44 L 140.31 23.31 L 142.77 25.54 L 145.23 28.11 L 147.69 30.96 L 150.15 34.06 L 152.62 37.36 L 155.08 40.82 L 157.54 44.38 L 160.00 48.00 L 162.46 51.62 L 164.92 55.18 L 167.38 58.64 L 169.85 61.94 L 172.31 65.04 L 174.77 67.89 L 177.23 70.46 L 179.69 72.69 L 182.15 74.56 L 184.62 76.05 L 187.08 77.13 L 189.54 77.78 L 192.00 78.00 L 194.46 77.78 L 196.92 77.13 L 199.38 76.05 L 201.85 74.56 L 204.31 72.69 L 206.77 70.46 L 209.23 67.89 L 211.69 65.04 L 214.15 61.94 L 216.62 58.64 L 219.08 55.18 L 221.54 51.62 L 224.00 48.00 L 226.46 44.38 L 228.92 40.82 L 231.38 37.36 L 233.85 34.06 L 236.31 30.96 L 238.77 28.11 L 241.23 25.54 L 243.69 23.31 L 246.15 21.44 L 248.62 19.95 L 251.08 18.87 L 253.54 18.22 L 256.00 18.00" stroke="#1F5FA8" fill="none" stroke-width="18" stroke-linecap="round" stroke-linejoin="round"/><path d="M 12.80 72.27 L 15.36 69.87 L 17.92 67.12 L 20.48 64.07 L 23.04 60.77 L 25.60 57.27 L 28.16 53.62 L 30.72 49.88 L 33.28 46.12 L 35.84 42.38 L 38.40 38.73 L 40.96 35.23 L 43.52 31.93 L 46.08 28.88 L 48.64 26.13 L 51.20 23.73" stroke="#EC7A2D" fill="none" stroke-width="18" stroke-linecap="round" stroke-linejoin="round"/><path d="M 140.80 72.27 L 143.36 69.87 L 145.92 67.12 L 148.48 64.07 L 151.04 60.77 L 153.60 57.27 L 156.16 53.62 L 158.72 49.88 L 161.28 46.12 L 163.84 42.38 L 166.40 38.73 L 168.96 35.23 L 171.52 31.93 L 174.08 28.88 L 176.64 26.13 L 179.20 23.73" stroke="#EC7A2D" fill="none" stroke-width="18" stroke-linecap="round" stroke-linejoin="round"/><circle cx="0.00" cy="78.00" r="14.40" fill="#EC7A2D"/><circle cx="0.00" cy="18.00" r="14.40" fill="#1F5FA8"/><circle cx="256.00" cy="78.00" r="14.40" fill="#EC7A2D"/><circle cx="256.00" cy="18.00" r="14.40" fill="#1F5FA8"/></svg>