<svg xmlns="http://www.w3.org/2000/svg" viewBox="0 0 831.8 198.1"><rect x="30" y="30" width="138.126953125" height="138.126953125" rx="32.459833984374995" ry="32.459833984374995" fill="#16263B"/><g transform="translate(99.0634765625,99.0634765625) rotate(-22)"><path d="M -44.20 16.58 L -43.07 16.45 L -41.93 16.09 L -40.80 15.50 L -39.67 14.68 L -38.53 13.64 L -37.40 12.41 L -36.27 10.99 L -35.13 9.42 L -34.00 7.70 L -32.87 5.88 L -31.73 3.97 L -30.60 2.00 L -29.47 0.00 L -28.33 -2.00 L -27.20 -3.97 L -26.07 -5.88 L -24.93 -7.70 L -23.80 -9.42 L -22.67 -10.99 L -21.53 -12.41 L -20.40 -13.64 L -19.27 -14.68 L -18.13 -15.50 L -17.00 -16.09 L -15.87 -16.45 L -14.73 -16.58 L -13.60 -16.45 L -12.47 -16.09 L -11.33 -15.50 L -10.20 -14.68 L -9.07 -13.64 L -7.93 -12.41 L -6.80 -10.99 L -5.67 -9.42 L -4.53 -7.70 L -3.40 -5.88 L -2.27 -3.97 L -1.13 -2.00 L 0.00 -0.00 L 1.13 2.00 L 2.27 3.97 L 3.40 5.88 L 4.53 7.70 L 5.67 9.42 L 6.80 10.99 L 7.93 12.41 L 9.07 13.64 L 10.20 14.68 L 11.33 15.50 L 12.47 16.09 L 13.60 16.45 L 14.73 16.58 L 15.87 16.45 L 17.00 16.09 L 18.13 15.50 L 19.27 14.68 L 20.40 13.64 L 21.53 12.41 L 22.67 10.99 L 23.80 9.42 L 24.93 7.70 L 26.07 5.88 L 27.20 3.97 L 28.33 2.00 L 29.47 0.00 L 30.60 -2.00 L 31.73 -3.97 L 32.87 -5.88 L 34.00 -7.70 L 35.13 -9.42 L 36.27 -10.99 L 37.40 -12.41 L 38.53 -13.64 L 39.67 -14.68 L 40.80 -15.50 L 41.93 -16.09 L 43.07 -16.45 L 44.20 -16.58" stroke="#EC7A2D" fill="none" stroke-width="9.945140624999999" stroke-linecap="round" stroke-linejoin="round"/><path d="M -44.20 -16.58 L -43.07 -16.45 L -41.93 -16.09 L -40.80 -15.50 L -39.67 -14.68 L -38.53 -13.64 L -37.40 -12.41 L -36.27 -10.99 L -35.13 -9.42 L -34.00 -7.70 L -32.87 -5.88 L -31.73 -3.97 L -30.60 -2.00 L -29.47 -0.00 L -28.33 2.00 L -27.20 3.97 L -26.07 5.88 L -24.93 7.70 L -23.80 9.42 L -22.67 10.99 L -21.53 12.41 L -20.40 13.64 L -19.27 14.68 L -18.13 15.50 L -17.00 16.09 L -15.87 16.45 L -14.73 16.58 L -13.60 16.45 L -12.47 16.09 L -11.33 15.50 L -10.20 14.68 L -9.07 13.64 L -7.93 12.41 L -6.80 10.99 L -5.67 9.42 L -4.53 7.70 L -3.40 5.88 L -2.27 3.97 L -1.13 2.00 L 0.00 0.00 L 1.13 -2.00 L 2.27 -3.97 L 3.40 -5.88 L 4.53 -7.70 L 5.67 -9.42 L 6.80 -10.99 L 7.93 -12.41 L 9.07 -13.64 L 10.20 -14.68 L 11.33 -15.50 L 12.47 -16.09 L 13.60 -16.45 L 14.73 -16.58 L 15.87 -16.45 L 17.00 -16.09 L 18.13 -15.50 L 19.27 -14.68 L 20.40 -13.64 L 21.53 -12.41 L 22.67 -10.99 L 23.80 -9.42 L 24.93 -7.70 L 26.07 -5.88 L 27.20 -3.97 L 28.33 -2.00 L 29.47 -0.00 L 30.60 2.00 L 31.73 3.97 L 32.87 5.88 L 34.00 7.70 L 35.13 9.42 L 36.27 10.99 L 37.40 12.41 L 38.53 13.64 L 39.67 14.68 L 40.80 15.50 L 41.93 16.09 L 43.07 16.45 L 44.20 16.58" stroke="#1F5FA8" fill="none" stroke-width="9.945140624999999" stroke-linecap="round" stroke-linejoin="round"/><path d="M -38.31 13.41 L -37.13 12.08 L -35.95 10.57 L -34.77 8.88 L -33.59 7.06 L -32.41 5.12 L -31.24 3.11 L -30.06 1.04 L -28.88 -1.04 L -27.70 -3.11 L -26.52 -5.12 L -25.34 -7.06 L -24.16 -8.88 L -22.98 -10.57 L -21.81 -12.08 L -20.63 -13.41" stroke="#EC7A2D" fill="none" stroke-width="9.945140624999999" stroke-linecap="round" stroke-linejoin="round"/><path d="M 20.63 13.41 L 21.81 12.08 L 22.98 10.57 L 24.16 8.88 L 25.34 7.06 L 26.52 5.12 L 27.70 3.11 L 28.88 1.04 L 30.06 -1.04 L 31.24 -3.11 L 32.41 -5.12 L 33.59 -7.06 L 34.77 -8.88 L 35.95 -10.57 L 37.13 -12.08 L 38.31 -13.41" stroke="#EC7A2D" fill="none" stroke-width="9.945140624999999" stroke-linecap="round" stroke-linejoin="round"/><circle cx="-44.20" cy="16.58" r="7.96" fill="#EC7A2D"/><circle cx="-44.20" cy="-16.58" r="7.96" fill="#1F5FA8"/><circle cx="44.20" cy="-16.58" r="7.96" fill="#EC7A2D"/><circle cx="44.20" cy="16.58" r="7.96" fill="#1F5FA8"/></g><g transform="translate(215.090,141.091) scale(0.056641,-0.056641)"><path d="M795.0 212Q1062.0 212 1166.0 480L1423.0 383Q1340.0 179 1179.5 79.5Q1019.0 -20 795.0 -20Q455.0 -20 269.5 172.5Q84.0 365 84.0 711Q84.0 1058 263.0 1244.0Q442.0 1430 782.0 1430Q1030.0 1430 1186.0 1330.5Q1342.0 1231 1405.0 1038L1145.0 967Q1112.0 1073 1015.5 1135.5Q919.0 1198 788.0 1198Q588.0 1198 484.5 1074.0Q381.0 950 381.0 711Q381.0 468 487.5 340.0Q594.0 212 795.0 212ZM2612.0 0 2487.0 360H1950.0L1825.0 0H1530.0L2044.0 1409H2392.0L2904.0 0ZM2218.0 1192 2212.0 1170Q2202.0 1134 2188.0 1088.0Q2174.0 1042 2016.0 582H2421.0L2282.0 987L2239.0 1123ZM3953.0 0 3339.0 1085Q3357.0 927 3357.0 831V0H3095.0V1409H3432.0L4055.0 315Q4037.0 466 4037.0 590V1409H4299.0V0Z" fill="#1F5FA8"/><path d="M4830.0 -20Q4673.0 -20 4585.0 65.5Q4497.0 151 4497.0 306Q4497.0 474 4606.5 562.0Q4716.0 650 4924.0 652L5157.0 656V711Q5157.0 817 5120.0 868.5Q5083.0 920 4999.0 920Q4921.0 920 4884.5 884.5Q4848.0 849 4839.0 767L4546.0 781Q4573.0 939 4690.5 1020.5Q4808.0 1102 5011.0 1102Q5216.0 1102 5327.0 1001.0Q5438.0 900 5438.0 714V320Q5438.0 229 5458.5 194.5Q5479.0 160 5527.0 160Q5559.0 160 5589.0 166V14Q5564.0 8 5544.0 3.0Q5524.0 -2 5504.0 -5.0Q5484.0 -8 5461.5 -10.0Q5439.0 -12 5409.0 -12Q5303.0 -12 5252.5 40.0Q5202.0 92 5192.0 193H5186.0Q5068.0 -20 4830.0 -20ZM5157.0 501 5013.0 499Q4915.0 495 4874.0 477.5Q4833.0 460 4811.5 424.0Q4790.0 388 4790.0 328Q4790.0 251 4825.5 213.5Q4861.0 176 4920.0 176Q4986.0 176 5040.5 212.0Q5095.0 248 5126.0 311.5Q5157.0 375 5157.0 446ZM5719.0 0V1484H6000.0V0ZM6428.0 -425Q6327.0 -425 6251.0 -412V-212Q6304.0 -220 6348.0 -220Q6408.0 -220 6447.5 -201.0Q6487.0 -182 6518.5 -138.0Q6550.0 -94 6589.0 11L6161.0 1082H6458.0L6628.0 575Q6668.0 466 6729.0 241L6754.0 336L6819.0 571L6979.0 1082H7273.0L6845.0 -57Q6759.0 -265 6666.5 -345.0Q6574.0 -425 6428.0 -425ZM8339.0 316Q8339.0 159 8210.5 69.5Q8082.0 -20 7855.0 -20Q7632.0 -20 7513.5 50.5Q7395.0 121 7356.0 270L7603.0 307Q7624.0 230 7675.5 198.0Q7727.0 166 7855.0 166Q7973.0 166 8027.0 196.0Q8081.0 226 8081.0 290Q8081.0 342 8037.5 372.5Q7994.0 403 7890.0 424Q7652.0 471 7569.0 511.5Q7486.0 552 7442.5 616.5Q7399.0 681 7399.0 775Q7399.0 930 7518.5 1016.5Q7638.0 1103 7857.0 1103Q8050.0 1103 8167.5 1028.0Q8285.0 953 8314.0 811L8065.0 785Q8053.0 851 8006.0 883.5Q7959.0 916 7857.0 916Q7757.0 916 7707.0 890.5Q7657.0 865 7657.0 805Q7657.0 758 7695.5 730.5Q7734.0 703 7825.0 685Q7952.0 659 8050.5 631.5Q8149.0 604 8208.5 566.0Q8268.0 528 8303.5 468.5Q8339.0 409 8339.0 316ZM9009.0 -20Q8765.0 -20 8634.0 124.5Q8503.0 269 8503.0 546Q8503.0 814 8636.0 958.0Q8769.0 1102 9013.0 1102Q9246.0 1102 9369.0 947.5Q9492.0 793 9492.0 495V487H8798.0Q8798.0 329 8856.5 248.5Q8915.0 168 9023.0 168Q9172.0 168 9211.0 297L9476.0 274Q9361.0 -20 9009.0 -20ZM9009.0 925Q8910.0 925 8856.5 856.0Q8803.0 787 8800.0 663H9220.0Q9212.0 794 9157.0 859.5Q9102.0 925 9009.0 925ZM9705.0 0V828Q9705.0 917 9702.5 976.5Q9700.0 1036 9697.0 1082H9965.0Q9968.0 1064 9973.0 972.5Q9978.0 881 9978.0 851H9982.0Q10023.0 965 10055.0 1011.5Q10087.0 1058 10131.0 1080.5Q10175.0 1103 10241.0 1103Q10295.0 1103 10328.0 1088V853Q10260.0 868 10208.0 868Q10103.0 868 10044.5 783.0Q9986.0 698 9986.0 531V0Z" fill="#16263B"/></g></svg>