<svg xmlns="http://www.w3.org/2000/svg" viewBox="0 0 512 512"><rect x="0" y="0" width="512" height="512" rx="120.32" ry="120.32" fill="#16263B"/><g transform="translate(256.0,256.0) rotate(-22)"><path d="M -174.00 60.00 L -169.54 59.56 L -165.08 58.26 L -160.62 56.10 L -156.15 53.13 L -151.69 49.38 L -147.23 44.91 L -142.77 39.79 L -138.31 34.08 L -133.85 27.88 L -129.38 21.28 L -124.92 14.36 L -120.46 7.23 L -116.00 0.00 L -111.54 -7.23 L -107.08 -14.36 L -102.62 -21.28 L -98.15 -27.88 L -93.69 -34.08 L -89.23 -39.79 L -84.77 -44.91 L -80.31 -49.38 L -75.85 -53.13 L -71.38 -56.10 L -66.92 -58.26 L -62.46 -59.56 L -58.00 -60.00 L -53.54 -59.56 L -49.08 -58.26 L -44.62 -56.10 L -40.15 -53.13 L -35.69 -49.38 L -31.23 -44.91 L -26.77 -39.79 L -22.31 -34.08 L -17.85 -27.88 L -13.38 -21.28 L -8.92 -14.36 L -4.46 -7.23 L 0.00 -0.00 L 4.46 7.23 L 8.92 14.36 L 13.38 21.28 L 17.85 27.88 L 22.31 34.08 L 26.77 39.79 L 31.23 44.91 L 35.69 49.38 L 40.15 53.13 L 44.62 56.10 L 49.08 58.26 L 53.54 59.56 L 58.00 60.00 L 62.46 59.56 L 66.92 58.26 L 71.38 56.10 L 75.85 53.13 L 80.31 49.38 L 84.77 44.91 L 89.23 39.79 L 93.69 34.08 L 98.15 27.88 L 102.62 21.28 L 107.08 14.36 L 111.54 7.23 L 116.00 0.00 L 120.46 -7.23 L 124.92 -14.36 L 129.38 -21.28 L 133.85 -27.88 L 138.31 -34.08 L 142.77 -39.79 L 147.23 -44.91 L 151.69 -49.38 L 156.15 -53.13 L 160.62 -56.10 L 165.08 -58.26 L 169.54 -59.56 L 174.00 -60.00" stroke="#EC7A2D" fill="none" stroke-width="40.0" stroke-linecap="round" stroke-linejoin="round"/><path d="M -174.00 -60.00 L -169.54 -59.56 L -165.08 -58.26 L -160.62 -56.10 L -156.15 -53.13 L -151.69 -49.38 L -147.23 -44.91 L -142.77 -39.79 L -138.31 -34.08 L -133.85 -27.88 L -129.38 -21.28 L -124.92 -14.36 L -120.46 -7.23 L -116.00 -0.00 L -111.54 7.23 L -107.08 14.36 L -102.62 21.28 L -98.15 27.88 L -93.69 34.08 L -89.23 39.79 L -84.77 44.91 L -80.31 49.38 L -75.85 53.13 L -71.38 56.10 L -66.92 58.26 L -62.46 59.56 L -58.00 60.00 L -53.54 59.56 L -49.08 58.26 L -44.62 56.10 L -40.15 53.13 L -35.69 49.38 L -31.23 44.91 L -26.77 39.79 L -22.31 34.08 L -17.85 27.88 L -13.38 21.28 L -8.92 14.36 L -4.46 7.23 L 0.00 0.00 L 4.46 -7.23 L 8.92 -14.36 L 13.38 -21.28 L 17.85 -27.88 L 22.31 -34.08 L 26.77 -39.79 L 31.23 -44.91 L 35.69 -49.38 L 40.15 -53.13 L 44.62 -56.10 L 49.08 -58.26 L 53.54 -59.56 L 58.00 -60.00 L 62.46 -59.56 L 66.92 -58.26 L 71.38 -56.10 L 75.85 -53.13 L 80.31 -49.38 L 84.77 -44.91 L 89.23 -39.79 L 93.69 -34.08 L 98.15 -27.88 L 102.62 -21.28 L 107.08 -14.36 L 111.54 -7.23 L 116.00 -0.00 L 120.46 7.23 L 124.92 14.36 L 129.38 21.28 L 133.85 27.88 L 138.31 34.08 L 142.77 39.79 L 147.23 44.91 L 151.69 49.38 L 156.15 53.13 L 160.62 56.10 L 165.08 58.26 L 169.54 59.56 L 174.00 60.00" stroke="#1F5FA8" fill="none" stroke-width="40.0" stroke-linecap="round" stroke-linejoin="round"/><path d="M -150.80 48.54 L -146.16 43.74 L -141.52 38.25 L -136.88 32.15 L -132.24 25.55 L -127.60 18.54 L -122.96 11.24 L -118.32 3.77 L -113.68 -3.77 L -109.04 -11.24 L -104.40 -18.54 L -99.76 -25.55 L -95.12 -32.15 L -90.48 -38.25 L -85.84 -43.74 L -81.20 -48.54" stroke="#EC7A2D" fill="none" stroke-width="40.0" stroke-linecap="round" stroke-linejoin="round"/><path d="M 81.20 48.54 L 85.84 43.74 L 90.48 38.25 L 95.12 32.15 L 99.76 25.55 L 104.40 18.54 L 109.04 11.24 L 113.68 3.77 L 118.32 -3.77 L 122.96 -11.24 L 127.60 -18.54 L 132.24 -25.55 L 136.88 -32.15 L 141.52 -38.25 L 146.16 -43.74 L 150.80 -48.54" stroke="#EC7A2D" fill="none" stroke-width="40.0" stroke-linecap="round" stroke-linejoin="round"/><circle cx="-174.00" cy="60.00" r="32.00" fill="#EC7A2D"/><circle cx="-174.00" cy="-60.00" r="32.00" fill="#1F5FA8"/><circle cx="174.00" cy="-60.00" r="32.00" fill="#EC7A2D"/><circle cx="174.00" cy="60.00" r="32.00" fill="#1F5FA8"/></g></svg>