<svg xmlns="http://www.w3.org/2000/svg" viewBox="0 0 713.6 218.2"><g transform="translate(28.000,122.199) scale(0.063477,-0.063477)"><path d="M795.0 212Q1062.0 212 1166.0 480L1423.0 383Q1340.0 179 1179.5 79.5Q1019.0 -20 795.0 -20Q455.0 -20 269.5 172.5Q84.0 365 84.0 711Q84.0 1058 263.0 1244.0Q442.0 1430 782.0 1430Q1030.0 1430 1186.0 1330.5Q1342.0 1231 1405.0 1038L1145.0 967Q1112.0 1073 1015.5 1135.5Q919.0 1198 788.0 1198Q588.0 1198 484.5 1074.0Q381.0 950 381.0 711Q381.0 468 487.5 340.0Q594.0 212 795.0 212ZM2612.0 0 2487.0 360H1950.0L1825.0 0H1530.0L2044.0 1409H2392.0L2904.0 0ZM2218.0 1192 2212.0 1170Q2202.0 1134 2188.0 1088.0Q2174.0 1042 2016.0 582H2421.0L2282.0 987L2239.0 1123ZM3953.0 0 3339.0 1085Q3357.0 927 3357.0 831V0H3095.0V1409H3432.0L4055.0 315Q4037.0 466 4037.0 590V1409H4299.0V0ZM4830.0 -20Q4673.0 -20 4585.0 65.5Q4497.0 151 4497.0 306Q4497.0 474 4606.5 562.0Q4716.0 650 4924.0 652L5157.0 656V711Q5157.0 817 5120.0 868.5Q5083.0 920 4999.0 920Q4921.0 920 4884.5 884.5Q4848.0 849 4839.0 767L4546.0 781Q4573.0 939 4690.5 1020.5Q4808.0 1102 5011.0 1102Q5216.0 1102 5327.0 1001.0Q5438.0 900 5438.0 714V320Q5438.0 229 5458.5 194.5Q5479.0 160 5527.0 160Q5559.0 160 5589.0 166V14Q5564.0 8 5544.0 3.0Q5524.0 -2 5504.0 -5.0Q5484.0 -8 5461.5 -10.0Q5439.0 -12 5409.0 -12Q5303.0 -12 5252.5 40.0Q5202.0 92 5192.0 193H5186.0Q5068.0 -20 4830.0 -20ZM5157.0 501 5013.0 499Q4915.0 495 4874.0 477.5Q4833.0 460 4811.5 424.0Q4790.0 388 4790.0 328Q4790.0 251 4825.5 213.5Q4861.0 176 4920.0 176Q4986.0 176 5040.5 212.0Q5095.0 248 5126.0 311.5Q5157.0 375 5157.0 446ZM5719.0 0V1484H6000.0V0ZM6428.0 -425Q6327.0 -425 6251.0 -412V-212Q6304.0 -220 6348.0 -220Q6408.0 -220 6447.5 -201.0Q6487.0 -182 6518.5 -138.0Q6550.0 -94 6589.0 11L6161.0 1082H6458.0L6628.0 575Q6668.0 466 6729.0 241L6754.0 336L6819.0 571L6979.0 1082H7273.0L6845.0 -57Q6759.0 -265 6666.5 -345.0Q6574.0 -425 6428.0 -425ZM8339.0 316Q8339.0 159 8210.5 69.5Q8082.0 -20 7855.0 -20Q7632.0 -20 7513.5 50.5Q7395.0 121 7356.0 270L7603.0 307Q7624.0 230 7675.5 198.0Q7727.0 166 7855.0 166Q7973.0 166 8027.0 196.0Q8081.0 226 8081.0 290Q8081.0 342 8037.5 372.5Q7994.0 403 7890.0 424Q7652.0 471 7569.0 511.5Q7486.0 552 7442.5 616.5Q7399.0 681 7399.0 775Q7399.0 930 7518.5 1016.5Q7638.0 1103 7857.0 1103Q8050.0 1103 8167.5 1028.0Q8285.0 953 8314.0 811L8065.0 785Q8053.0 851 8006.0 883.5Q7959.0 916 7857.0 916Q7757.0 916 7707.0 890.5Q7657.0 865 7657.0 805Q7657.0 758 7695.5 730.5Q7734.0 703 7825.0 685Q7952.0 659 8050.5 631.5Q8149.0 604 8208.5 566.0Q8268.0 528 8303.5 468.5Q8339.0 409 8339.0 316ZM9009.0 -20Q8765.0 -20 8634.0 124.5Q8503.0 269 8503.0 546Q8503.0 814 8636.0 958.0Q8769.0 1102 9013.0 1102Q9246.0 1102 9369.0 947.5Q9492.0 793 9492.0 495V487H8798.0Q8798.0 329 8856.5 248.5Q8915.0 168 9023.0 168Q9172.0 168 9211.0 297L9476.0 274Q9361.0 -20 9009.0 -20ZM9009.0 925Q8910.0 925 8856.5 856.0Q8803.0 787 8800.0 663H9220.0Q9212.0 794 9157.0 859.5Q9102.0 925 9009.0 925ZM9705.0 0V828Q9705.0 917 9702.5 976.5Q9700.0 1036 9697.0 1082H9965.0Q9968.0 1064 9973.0 972.5Q9978.0 881 9978.0 851H9982.0Q10023.0 965 10055.0 1011.5Q10087.0 1058 10131.0 1080.5Q10175.0 1103 10241.0 1103Q10295.0 1103 10328.0 1088V853Q10260.0 868 10208.0 868Q10103.0 868 10044.5 783.0Q9986.0 698 9986.0 531V0Z" fill="#16263B"/></g><path d="M 33.33 193.18 L 36.46 193.07 L 39.58 192.77 L 42.71 192.27 L 45.84 191.57 L 48.96 190.70 L 52.09 189.66 L 55.22 188.46 L 58.34 187.13 L 61.47 185.68 L 64.59 184.14 L 67.72 182.53 L 70.85 180.86 L 73.97 179.18 L 77.10 177.49 L 80.23 175.83 L 83.35 174.21 L 86.48 172.67 L 89.60 171.22 L 92.73 169.89 L 95.86 168.70 L 98.98 167.65 L 102.11 166.78 L 105.24 166.09 L 108.36 165.58 L 111.49 165.28 L 114.61 165.18 L 117.74 165.28 L 120.87 165.58 L 123.99 166.09 L 127.12 166.78 L 130.24 167.65 L 133.37 168.70 L 136.50 169.89 L 139.62 171.22 L 142.75 172.67 L 145.88 174.21 L 149.00 175.83 L 152.13 177.49 L 155.25 179.18 L 158.38 180.86 L 161.51 182.53 L 164.63 184.14 L 167.76 185.68 L 170.89 187.13 L 174.01 188.46 L 177.14 189.66 L 180.26 190.70 L 183.39 191.57 L 186.52 192.27 L 189.64 192.77 L 192.77 193.07 L 195.90 193.18 L 199.02 193.07 L 202.15 192.77 L 205.27 192.27 L 208.40 191.57 L 211.53 190.70 L 214.65 189.66 L 217.78 188.46 L 220.91 187.13 L 224.03 185.68 L 227.16 184.14 L 230.28 182.53 L 233.41 180.86 L 236.54 179.18 L 239.66 177.49 L 242.79 175.83 L 245.92 174.21 L 249.04 172.67 L 252.17 171.22 L 255.29 169.89 L 258.42 168.70 L 261.55 167.65 L 264.67 166.78 L 267.80 166.09 L 270.92 165.58 L 274.05 165.28 L 277.18 165.18 L 280.30 165.28 L 283.43 165.58 L 286.56 166.09 L 289.68 166.78 L 292.81 167.65 L 295.93 168.70 L 299.06 169.89 L 302.19 171.22 L 305.31 172.67 L 308.44 174.21 L 311.57 175.83 L 314.69 177.49 L 317.82 179.18 L 320.94 180.86 L 324.07 182.53 L 327.20 184.14 L 330.32 185.68 L 333.45 187.13 L 336.58 188.46 L 339.70 189.66 L 342.83 190.70 L 345.95 191.57 L 349.08 192.27 L 352.21 192.77 L 355.33 193.07 L 358.46 193.18 L 361.59 193.07 L 364.71 192.77 L 367.84 192.27 L 370.96 191.57 L 374.09 190.70 L 377.22 189.66 L 380.34 188.46 L 383.47 187.13 L 386.59 185.68 L 389.72 184.14 L 392.85 182.53 L 395.97 180.86 L 399.10 179.18 L 402.23 177.49 L 405.35 175.83 L 408.48 174.21 L 411.60 172.67 L 414.73 171.22 L 417.86 169.89 L 420.98 168.70 L 424.11 167.65 L 427.24 166.78 L 430.36 166.09 L 433.49 165.58 L 436.61 165.28 L 439.74 165.18 L 442.87 165.28 L 445.99 165.58 L 449.12 166.09 L 452.25 166.78 L 455.37 167.65 L 458.50 168.70 L 461.62 169.89 L 464.75 171.22 L 467.88 172.67 L 471.00 174.21 L 474.13 175.83 L 477.26 177.49 L 480.38 179.18 L 483.51 180.86 L 486.63 182.53 L 489.76 184.14 L 492.89 185.68 L 496.01 187.13 L 499.14 188.46 L 502.27 189.66 L 505.39 190.70 L 508.52 191.57 L 511.64 192.27 L 514.77 192.77 L 517.90 193.07 L 521.02 193.18 L 524.15 193.07 L 527.27 192.77 L 530.40 192.27 L 533.53 191.57 L 536.65 190.70 L 539.78 189.66 L 542.91 188.46 L 546.03 187.13 L 549.16 185.68 L 552.28 184.14 L 555.41 182.53 L 558.54 180.86 L 561.66 179.18 L 564.79 177.49 L 567.92 175.83 L 571.04 174.21 L 574.17 172.67 L 577.29 171.22 L 580.42 169.89 L 583.55 168.70 L 586.67 167.65 L 589.80 166.78 L 592.93 166.09 L 596.05 165.58 L 599.18 165.28 L 602.30 165.18 L 605.43 165.28 L 608.56 165.58 L 611.68 166.09 L 614.81 166.78 L 617.94 167.65 L 621.06 168.70 L 624.19 169.89 L 627.31 171.22 L 630.44 172.67 L 633.57 174.21 L 636.69 175.83 L 639.82 177.49 L 642.95 179.18 L 646.07 180.86 L 649.20 182.53 L 652.32 184.14 L 655.45 185.68 L 658.58 187.13 L 661.70 188.46 L 664.83 189.66 L 667.95 190.70 L 671.08 191.57 L 674.21 192.27 L 677.33 192.77 L 680.46 193.07 L 683.59 193.18" stroke="#EC7A2D" fill="none" stroke-width="13" stroke-linecap="round" stroke-linejoin="round"/><path d="M 33.33 165.18 L 36.46 165.28 L 39.58 165.58 L 42.71 166.09 L 45.84 166.78 L 48.96 167.65 L 52.09 168.70 L 55.22 169.89 L 58.34 171.22 L 61.47 172.67 L 64.59 174.21 L 67.72 175.83 L 70.85 177.49 L 73.97 179.18 L 77.10 180.86 L 80.23 182.53 L 83.35 184.14 L 86.48 185.68 L 89.60 187.13 L 92.73 188.46 L 95.86 189.66 L 98.98 190.70 L 102.11 191.57 L 105.24 192.27 L 108.36 192.77 L 111.49 193.07 L 114.61 193.18 L 117.74 193.07 L 120.87 192.77 L 123.99 192.27 L 127.12 191.57 L 130.24 190.70 L 133.37 189.66 L 136.50 188.46 L 139.62 187.13 L 142.75 185.68 L 145.88 184.14 L 149.00 182.53 L 152.13 180.86 L 155.25 179.18 L 158.38 177.49 L 161.51 175.83 L 164.63 174.21 L 167.76 172.67 L 170.89 171.22 L 174.01 169.89 L 177.14 168.70 L 180.26 167.65 L 183.39 166.78 L 186.52 166.09 L 189.64 165.58 L 192.77 165.28 L 195.90 165.18 L 199.02 165.28 L 202.15 165.58 L 205.27 166.09 L 208.40 166.78 L 211.53 167.65 L 214.65 168.70 L 217.78 169.89 L 220.91 171.22 L 224.03 172.67 L 227.16 174.21 L 230.28 175.83 L 233.41 177.49 L 236.54 179.18 L 239.66 180.86 L 242.79 182.53 L 245.92 184.14 L 249.04 185.68 L 252.17 187.13 L 255.29 188.46 L 258.42 189.66 L 261.55 190.70 L 264.67 191.57 L 267.80 192.27 L 270.92 192.77 L 274.05 193.07 L 277.18 193.18 L 280.30 193.07 L 283.43 192.77 L 286.56 192.27 L 289.68 191.57 L 292.81 190.70 L 295.93 189.66 L 299.06 188.46 L 302.19 187.13 L 305.31 185.68 L 308.44 184.14 L 311.57 182.53 L 314.69 180.86 L 317.82 179.18 L 320.94 177.49 L 324.07 175.83 L 327.20 174.21 L 330.32 172.67 L 333.45 171.22 L 336.58 169.89 L 339.70 168.70 L 342.83 167.65 L 345.95 166.78 L 349.08 166.09 L 352.21 165.58 L 355.33 165.28 L 358.46 165.18 L 361.59 165.28 L 364.71 165.58 L 367.84 166.09 L 370.96 166.78 L 374.09 167.65 L 377.22 168.70 L 380.34 169.89 L 383.47 171.22 L 386.59 172.67 L 389.72 174.21 L 392.85 175.83 L 395.97 177.49 L 399.10 179.18 L 402.23 180.86 L 405.35 182.53 L 408.48 184.14 L 411.60 185.68 L 414.73 187.13 L 417.86 188.46 L 420.98 189.66 L 424.11 190.70 L 427.24 191.57 L 430.36 192.27 L 433.49 192.77 L 436.61 193.07 L 439.74 193.18 L 442.87 193.07 L 445.99 192.77 L 449.12 192.27 L 452.25 191.57 L 455.37 190.70 L 458.50 189.66 L 461.62 188.46 L 464.75 187.13 L 467.88 185.68 L 471.00 184.14 L 474.13 182.53 L 477.26 180.86 L 480.38 179.18 L 483.51 177.49 L 486.63 175.83 L 489.76 174.21 L 492.89 172.67 L 496.01 171.22 L 499.14 169.89 L 502.27 168.70 L 505.39 167.65 L 508.52 166.78 L 511.64 166.09 L 514.77 165.58 L 517.90 165.28 L 521.02 165.18 L 524.15 165.28 L 527.27 165.58 L 530.40 166.09 L 533.53 166.78 L 536.65 167.65 L 539.78 168.70 L 542.91 169.89 L 546.03 171.22 L 549.16 172.67 L 552.28 174.21 L 555.41 175.83 L 558.54 177.49 L 561.66 179.18 L 564.79 180.86 L 567.92 182.53 L 571.04 184.14 L 574.17 185.68 L 577.29 187.13 L 580.42 188.46 L 583.55 189.66 L 586.67 190.70 L 589.80 191.57 L 592.93 192.27 L 596.05 192.77 L 599.18 193.07 L 602.30 193.18 L 605.43 193.07 L 608.56 192.77 L 611.68 192.27 L 614.81 191.57 L 617.94 190.70 L 621.06 189.66 L 624.19 188.46 L 627.31 187.13 L 630.44 185.68 L 633.57 184.14 L 636.69 182.53 L 639.82 180.86 L 642.95 179.18 L 646.07 177.49 L 649.20 175.83 L 652.32 174.21 L 655.45 172.67 L 658.58 171.22 L 661.70 169.89 L 664.83 168.70 L 667.95 167.65 L 671.08 166.78 L 674.21 166.09 L 677.33 165.58 L 680.46 165.28 L 683.59 165.18" stroke="#1F5FA8" fill="none" stroke-width="13" stroke-linecap="round" stroke-linejoin="round"/><path d="M 49.59 190.50 L 52.84 189.38 L 56.09 188.10 L 59.34 186.68 L 62.59 185.14 L 65.84 183.50 L 69.10 181.80 L 72.35 180.06 L 75.60 178.30 L 78.85 176.55 L 82.10 174.85 L 85.35 173.22 L 88.60 171.68 L 91.85 170.25 L 95.11 168.97 L 98.36 167.85" stroke="#EC7A2D" fill="none" stroke-width="13" stroke-linecap="round" stroke-linejoin="round"/><path d="M 212.15 190.50 L 215.40 189.38 L 218.65 188.10 L 221.91 186.68 L 225.16 185.14 L 228.41 183.50 L 231.66 181.80 L 234.91 180.06 L 238.16 178.30 L 241.41 176.55 L 244.66 174.85 L 247.92 173.22 L 251.17 171.68 L 254.42 170.25 L 257.67 168.97 L 260.92 167.85" stroke="#EC7A2D" fill="none" stroke-width="13" stroke-linecap="round" stroke-linejoin="round"/><path d="M 374.72 190.50 L 377.97 189.38 L 381.22 188.10 L 384.47 186.68 L 387.72 185.14 L 390.97 183.50 L 394.22 181.80 L 397.47 180.06 L 400.73 178.30 L 403.98 176.55 L 407.23 174.85 L 410.48 173.22 L 413.73 171.68 L 416.98 170.25 L 420.23 168.97 L 423.48 167.85" stroke="#EC7A2D" fill="none" stroke-width="13" stroke-linecap="round" stroke-linejoin="round"/><path d="M 537.28 190.50 L 540.53 189.38 L 543.78 188.10 L 547.03 186.68 L 550.28 185.14 L 553.54 183.50 L 556.79 181.80 L 560.04 180.06 L 563.29 178.30 L 566.54 176.55 L 569.79 174.85 L 573.04 173.22 L 576.29 171.68 L 579.55 170.25 L 582.80 168.97 L 586.05 167.85" stroke="#EC7A2D" fill="none" stroke-width="13" stroke-linecap="round" stroke-linejoin="round"/><circle cx="33.33" cy="193.18" r="9.88" fill="#EC7A2D"/><circle cx="33.33" cy="165.18" r="9.88" fill="#1F5FA8"/><circle cx="683.59" cy="193.18" r="9.88" fill="#EC7A2D"/><circle cx="683.59" cy="165.18" r="9.88" fill="#1F5FA8"/></svg>